<?xml version="1.0" standalone="no"?>
<!DOCTYPE svg PUBLIC "-//W3C//DTD SVG 20010904//EN"
 "http://www.w3.org/TR/2001/REC-SVG-20010904/DTD/svg10.dtd">
<svg version="1.0" xmlns="http://www.w3.org/2000/svg"
 width="512.000000pt" height="512.000000pt" viewBox="0 0 512.000000 512.000000"
 preserveAspectRatio="xMidYMid meet">
<metadata>
Created by potrace 1.11, written by Peter Selinger 2001-2013
</metadata>
<g transform="translate(0.000000,512.000000) scale(0.100000,-0.100000)"
fill="#000000" stroke="none">
<path d="M4536 5097 c-72 -40 -106 -144 -71 -213 59 -120 216 -127 292 -15 44
65 24 167 -43 218 -47 36 -125 40 -178 10z"/>
<path d="M4146 4562 c-60 -8 -116 -60 -133 -122 -19 -71 3 -131 63 -177 74
-56 194 -30 239 53 35 66 20 159 -35 209 -23 21 -97 42 -134 37z"/>
<path d="M2560 4080 c-19 -4 -48 -10 -65 -14 -193 -39 -278 -93 -341 -218 -36
-70 -42 -160 -20 -262 20 -86 18 -98 -10 -102 -10 -2 -46 -9 -79 -17 -79 -19
-536 -127 -555 -132 -8 -2 -37 -8 -65 -15 -27 -6 -124 -29 -215 -51 -91 -21
-213 -50 -271 -64 -58 -14 -115 -27 -127 -30 -11 -2 -47 -11 -79 -20 -90 -25
-126 -92 -88 -165 29 -56 75 -66 187 -39 46 12 94 23 108 25 14 3 99 23 190
45 91 22 176 42 190 45 14 3 31 7 38 9 11 4 226 55 292 70 8 2 123 29 255 60
132 31 305 72 385 91 80 19 152 36 160 38 8 2 67 16 130 31 111 26 156 36 530
125 96 23 181 43 190 45 8 2 33 8 55 13 22 6 51 13 65 16 14 2 84 18 155 35
340 81 438 105 671 160 139 32 261 64 273 70 26 14 51 62 51 97 0 15 -10 42
-22 60 -36 53 -74 56 -225 19 -56 -13 -112 -26 -125 -29 -13 -2 -63 -14 -113
-26 -49 -12 -97 -24 -105 -25 -8 -2 -91 -22 -185 -45 -93 -22 -219 -52 -280
-66 -60 -14 -193 -45 -295 -70 -102 -24 -194 -46 -206 -49 -18 -4 -22 4 -38
70 -32 138 -93 227 -192 282 -55 30 -159 46 -224 33z m152 -258 c33 -34 72
-166 53 -182 -7 -5 -34 -14 -61 -19 -27 -6 -78 -17 -114 -26 -36 -9 -74 -18
-85 -20 -55 -12 -75 -17 -82 -17 -5 0 -16 -4 -25 -9 -21 -11 -30 4 -47 84 -27
124 7 169 156 208 114 29 162 25 205 -19z"/>
<path d="M4403 3558 c-192 -29 -318 -212 -276 -401 21 -96 92 -185 178 -226
252 -119 526 104 465 377 -36 163 -201 275 -367 250z"/>
<path d="M3365 3206 c-112 -36 -149 -59 -228 -141 -73 -76 -124 -202 -130
-320 l-3 -70 -1269 0 -1270 -1 -42 -24 c-82 -46 -108 -163 -53 -238 30 -41 95
-72 148 -72 l42 0 0 -160 0 -160 -97 -1 c-108 -1 -115 -1 -170 -20 -56 -18
-105 -51 -151 -104 -61 -69 -84 -138 -88 -265 -6 -218 33 -321 154 -408 64
-45 127 -61 248 -63 l104 -1 0 -387 c0 -412 4 -450 51 -544 27 -52 123 -148
175 -175 108 -55 6 -52 1793 -49 l1646 2 58 23 c109 44 205 140 249 250 22 56
23 66 26 468 l3 411 92 2 c123 2 150 6 210 34 88 41 167 137 192 232 12 44 14
262 3 309 -21 95 -87 188 -169 238 -50 31 -131 48 -231 48 l-98 0 0 160 0 160
43 0 c23 0 60 9 83 19 119 54 125 227 11 291 -42 24 -43 24 -367 25 l-325 0
-1 60 c-8 331 -333 571 -639 471z m-2812 -1415 c4 0 7 -93 7 -205 l0 -204 -98
2 c-159 4 -186 37 -180 221 3 110 4 115 33 145 16 17 42 34 58 38 23 6 146 8
180 3z m4226 -17 c48 -28 61 -67 61 -184 0 -171 -28 -203 -182 -206 l-98 -2 0
207 0 207 94 -2 c71 -1 101 -6 125 -20z"/>
</g>
</svg>
